<mxfile host="Electron" agent="Mozilla/5.0 (Windows NT 10.0; Win64; x64) AppleWebKit/537.36 (KHTML, like Gecko) draw.io/26.2.2 Chrome/134.0.6998.178 Electron/35.1.2 Safari/537.36" version="26.2.2">
  <diagram name="Pagina-1" id="0ns_voabkQ5CWWLNBtEU">
    <mxGraphModel dx="1871" dy="626" grid="1" gridSize="10" guides="1" tooltips="1" connect="1" arrows="1" fold="1" page="1" pageScale="1" pageWidth="827" pageHeight="1169" math="0" shadow="0">
      <root>
        <mxCell id="0" />
        <mxCell id="1" parent="0" />
        <mxCell id="hlG7USS01fNyysAAoeb_-1" value="" style="ellipse;html=1;shape=startState;fillColor=#000000;strokeColor=#ff0000;" parent="1" vertex="1">
          <mxGeometry x="280" y="80" width="40" height="40" as="geometry" />
        </mxCell>
        <mxCell id="hlG7USS01fNyysAAoeb_-2" value="caricamento attività e utenti dal database" style="edgeStyle=orthogonalEdgeStyle;html=1;verticalAlign=bottom;endArrow=open;endSize=8;strokeColor=#ff0000;" parent="1" source="hlG7USS01fNyysAAoeb_-1" target="hlG7USS01fNyysAAoeb_-4" edge="1">
          <mxGeometry relative="1" as="geometry">
            <mxPoint x="300" y="160" as="targetPoint" />
            <mxPoint as="offset" />
          </mxGeometry>
        </mxCell>
        <mxCell id="hlG7USS01fNyysAAoeb_-3" style="edgeStyle=orthogonalEdgeStyle;shape=connector;rounded=0;orthogonalLoop=1;jettySize=auto;html=1;strokeColor=#ff0000;align=center;verticalAlign=bottom;fontFamily=Helvetica;fontSize=11;fontColor=default;labelBackgroundColor=default;endArrow=open;endSize=8;" parent="1" source="hlG7USS01fNyysAAoeb_-4" target="hlG7USS01fNyysAAoeb_-5" edge="1">
          <mxGeometry relative="1" as="geometry">
            <Array as="points">
              <mxPoint x="260" y="140" />
              <mxPoint x="20" y="140" />
            </Array>
          </mxGeometry>
        </mxCell>
        <mxCell id="izYChvDcrk6QbwemQSkL-1" value="chiusura pagina" style="edgeLabel;html=1;align=center;verticalAlign=middle;resizable=0;points=[];" vertex="1" connectable="0" parent="hlG7USS01fNyysAAoeb_-3">
          <mxGeometry x="0.2" y="3" relative="1" as="geometry">
            <mxPoint x="22" y="-3" as="offset" />
          </mxGeometry>
        </mxCell>
        <mxCell id="hlG7USS01fNyysAAoeb_-4" value="Pagina home amministratore" style="rounded=1;whiteSpace=wrap;html=1;arcSize=40;fontColor=#000000;fillColor=#ffffc0;strokeColor=#ff0000;" parent="1" vertex="1">
          <mxGeometry x="240" y="160" width="120" height="40" as="geometry" />
        </mxCell>
        <mxCell id="hlG7USS01fNyysAAoeb_-5" value="" style="ellipse;html=1;shape=endState;fillColor=#000000;strokeColor=#ff0000;fontFamily=Helvetica;fontSize=11;fontColor=default;labelBackgroundColor=default;" parent="1" vertex="1">
          <mxGeometry y="40" width="40" height="40" as="geometry" />
        </mxCell>
        <mxCell id="hlG7USS01fNyysAAoeb_-6" style="edgeStyle=orthogonalEdgeStyle;shape=connector;rounded=0;orthogonalLoop=1;jettySize=auto;html=1;strokeColor=#ff0000;align=center;verticalAlign=bottom;fontFamily=Helvetica;fontSize=11;fontColor=default;labelBackgroundColor=default;endArrow=open;endSize=8;" parent="1" source="hlG7USS01fNyysAAoeb_-4" target="hlG7USS01fNyysAAoeb_-10" edge="1">
          <mxGeometry relative="1" as="geometry">
            <mxPoint x="-480" y="340" as="sourcePoint" />
            <Array as="points">
              <mxPoint x="290" y="280" />
              <mxPoint x="-300" y="280" />
            </Array>
          </mxGeometry>
        </mxCell>
        <mxCell id="hlG7USS01fNyysAAoeb_-7" value="click pulsante&lt;div&gt;informazioni personali&lt;/div&gt;" style="edgeLabel;html=1;align=center;verticalAlign=middle;resizable=0;points=[];fontFamily=Helvetica;fontSize=11;fontColor=default;labelBackgroundColor=default;" parent="hlG7USS01fNyysAAoeb_-6" vertex="1" connectable="0">
          <mxGeometry x="0.0516" y="-2" relative="1" as="geometry">
            <mxPoint x="-2" y="2" as="offset" />
          </mxGeometry>
        </mxCell>
        <mxCell id="hlG7USS01fNyysAAoeb_-8" style="edgeStyle=orthogonalEdgeStyle;shape=connector;rounded=0;orthogonalLoop=1;jettySize=auto;html=1;strokeColor=#ff0000;align=center;verticalAlign=bottom;fontFamily=Helvetica;fontSize=11;fontColor=default;labelBackgroundColor=default;endArrow=open;endSize=8;" parent="1" source="hlG7USS01fNyysAAoeb_-10" target="hlG7USS01fNyysAAoeb_-15" edge="1">
          <mxGeometry relative="1" as="geometry" />
        </mxCell>
        <mxCell id="hlG7USS01fNyysAAoeb_-9" value="click pulsante salva" style="edgeLabel;html=1;align=center;verticalAlign=middle;resizable=0;points=[];fontFamily=Helvetica;fontSize=11;fontColor=default;labelBackgroundColor=default;" parent="hlG7USS01fNyysAAoeb_-8" vertex="1" connectable="0">
          <mxGeometry x="-0.0148" y="1" relative="1" as="geometry">
            <mxPoint x="1" as="offset" />
          </mxGeometry>
        </mxCell>
        <mxCell id="hlG7USS01fNyysAAoeb_-10" value="Modale informazioni personali" style="rounded=1;whiteSpace=wrap;html=1;arcSize=40;fontColor=#000000;fillColor=#ffffc0;strokeColor=#ff0000;" parent="1" vertex="1">
          <mxGeometry x="-360" y="160" width="120" height="40" as="geometry" />
        </mxCell>
        <mxCell id="hlG7USS01fNyysAAoeb_-11" style="edgeStyle=orthogonalEdgeStyle;shape=connector;rounded=0;orthogonalLoop=1;jettySize=auto;html=1;strokeColor=#ff0000;align=center;verticalAlign=bottom;fontFamily=Helvetica;fontSize=11;fontColor=default;labelBackgroundColor=default;endArrow=open;endSize=8;" parent="1" source="hlG7USS01fNyysAAoeb_-15" target="hlG7USS01fNyysAAoeb_-17" edge="1">
          <mxGeometry relative="1" as="geometry" />
        </mxCell>
        <mxCell id="hlG7USS01fNyysAAoeb_-12" value="no" style="edgeLabel;html=1;align=center;verticalAlign=middle;resizable=0;points=[];fontFamily=Helvetica;fontSize=11;fontColor=default;labelBackgroundColor=default;" parent="hlG7USS01fNyysAAoeb_-11" vertex="1" connectable="0">
          <mxGeometry x="-0.6185" y="-3" relative="1" as="geometry">
            <mxPoint x="-11" y="-13" as="offset" />
          </mxGeometry>
        </mxCell>
        <mxCell id="hlG7USS01fNyysAAoeb_-13" style="edgeStyle=orthogonalEdgeStyle;shape=connector;rounded=0;orthogonalLoop=1;jettySize=auto;html=1;strokeColor=#ff0000;align=center;verticalAlign=bottom;fontFamily=Helvetica;fontSize=11;fontColor=default;labelBackgroundColor=default;endArrow=open;endSize=8;" parent="1" source="hlG7USS01fNyysAAoeb_-15" target="hlG7USS01fNyysAAoeb_-19" edge="1">
          <mxGeometry relative="1" as="geometry">
            <Array as="points">
              <mxPoint x="-360" y="100" />
              <mxPoint x="-360" y="100" />
            </Array>
          </mxGeometry>
        </mxCell>
        <mxCell id="hlG7USS01fNyysAAoeb_-14" value="sì" style="edgeLabel;html=1;align=center;verticalAlign=middle;resizable=0;points=[];fontFamily=Helvetica;fontSize=11;fontColor=default;labelBackgroundColor=default;" parent="hlG7USS01fNyysAAoeb_-13" vertex="1" connectable="0">
          <mxGeometry x="-0.3938" y="-2" relative="1" as="geometry">
            <mxPoint x="19" y="-8" as="offset" />
          </mxGeometry>
        </mxCell>
        <mxCell id="hlG7USS01fNyysAAoeb_-15" value="dati corretti?" style="rhombus;whiteSpace=wrap;html=1;fontColor=#000000;fillColor=#ffffc0;strokeColor=#ff0000;fontFamily=Helvetica;fontSize=11;labelBackgroundColor=none;" parent="1" vertex="1">
          <mxGeometry x="-340" y="80" width="80" height="40" as="geometry" />
        </mxCell>
        <mxCell id="hlG7USS01fNyysAAoeb_-16" style="edgeStyle=orthogonalEdgeStyle;shape=connector;rounded=0;orthogonalLoop=1;jettySize=auto;html=1;strokeColor=#ff0000;align=center;verticalAlign=bottom;fontFamily=Helvetica;fontSize=11;fontColor=default;labelBackgroundColor=default;endArrow=open;endSize=8;" parent="1" source="hlG7USS01fNyysAAoeb_-17" target="hlG7USS01fNyysAAoeb_-10" edge="1">
          <mxGeometry relative="1" as="geometry">
            <Array as="points">
              <mxPoint x="-140" y="180" />
            </Array>
          </mxGeometry>
        </mxCell>
        <mxCell id="hlG7USS01fNyysAAoeb_-17" value="Messaggio di errore" style="rounded=1;whiteSpace=wrap;html=1;arcSize=40;fontColor=#000000;fillColor=#ffffc0;strokeColor=#ff0000;" parent="1" vertex="1">
          <mxGeometry x="-200" y="80" width="120" height="40" as="geometry" />
        </mxCell>
        <mxCell id="hlG7USS01fNyysAAoeb_-18" style="edgeStyle=orthogonalEdgeStyle;shape=connector;rounded=0;orthogonalLoop=1;jettySize=auto;html=1;strokeColor=#ff0000;align=center;verticalAlign=bottom;fontFamily=Helvetica;fontSize=11;fontColor=default;labelBackgroundColor=default;endArrow=open;endSize=8;" parent="1" source="hlG7USS01fNyysAAoeb_-19" target="hlG7USS01fNyysAAoeb_-10" edge="1">
          <mxGeometry relative="1" as="geometry">
            <Array as="points">
              <mxPoint x="-460" y="180" />
            </Array>
          </mxGeometry>
        </mxCell>
        <mxCell id="hlG7USS01fNyysAAoeb_-19" value="Salvataggio dati paziente su database" style="rounded=1;whiteSpace=wrap;html=1;arcSize=40;fontColor=#000000;fillColor=#ffffc0;strokeColor=#ff0000;" parent="1" vertex="1">
          <mxGeometry x="-520" y="80" width="120" height="40" as="geometry" />
        </mxCell>
        <mxCell id="hlG7USS01fNyysAAoeb_-22" style="edgeStyle=orthogonalEdgeStyle;shape=connector;rounded=0;orthogonalLoop=1;jettySize=auto;html=1;strokeColor=#ff0000;align=center;verticalAlign=bottom;fontFamily=Helvetica;fontSize=11;fontColor=default;labelBackgroundColor=default;endArrow=open;endSize=8;" parent="1" source="hlG7USS01fNyysAAoeb_-4" target="hlG7USS01fNyysAAoeb_-31" edge="1">
          <mxGeometry relative="1" as="geometry">
            <mxPoint x="200" y="500" as="sourcePoint" />
            <Array as="points">
              <mxPoint x="320" y="500" />
            </Array>
          </mxGeometry>
        </mxCell>
        <mxCell id="hlG7USS01fNyysAAoeb_-23" value="click scheda&lt;div&gt;contenuti&lt;/div&gt;" style="edgeLabel;html=1;align=center;verticalAlign=middle;resizable=0;points=[];fontFamily=Helvetica;fontSize=11;fontColor=default;labelBackgroundColor=default;" parent="hlG7USS01fNyysAAoeb_-22" vertex="1" connectable="0">
          <mxGeometry x="0.1769" y="1" relative="1" as="geometry">
            <mxPoint x="-112" y="-1" as="offset" />
          </mxGeometry>
        </mxCell>
        <mxCell id="hlG7USS01fNyysAAoeb_-27" style="edgeStyle=orthogonalEdgeStyle;shape=connector;rounded=0;orthogonalLoop=1;jettySize=auto;html=1;strokeColor=#ff0000;align=center;verticalAlign=bottom;fontFamily=Helvetica;fontSize=11;fontColor=default;labelBackgroundColor=default;endArrow=open;endSize=8;" parent="1" source="hlG7USS01fNyysAAoeb_-31" target="hlG7USS01fNyysAAoeb_-50" edge="1">
          <mxGeometry relative="1" as="geometry" />
        </mxCell>
        <mxCell id="hlG7USS01fNyysAAoeb_-28" value="click pulsante&lt;div&gt;informazioni contenuto&lt;/div&gt;" style="edgeLabel;html=1;align=center;verticalAlign=middle;resizable=0;points=[];fontFamily=Helvetica;fontSize=11;fontColor=default;labelBackgroundColor=default;" parent="hlG7USS01fNyysAAoeb_-27" vertex="1" connectable="0">
          <mxGeometry x="0.025" y="-1" relative="1" as="geometry">
            <mxPoint as="offset" />
          </mxGeometry>
        </mxCell>
        <mxCell id="hlG7USS01fNyysAAoeb_-29" style="edgeStyle=orthogonalEdgeStyle;shape=connector;rounded=0;orthogonalLoop=1;jettySize=auto;html=1;strokeColor=#ff0000;align=center;verticalAlign=bottom;fontFamily=Helvetica;fontSize=11;fontColor=default;labelBackgroundColor=default;endArrow=open;endSize=8;" parent="1" source="hlG7USS01fNyysAAoeb_-31" target="hlG7USS01fNyysAAoeb_-62" edge="1">
          <mxGeometry relative="1" as="geometry">
            <Array as="points">
              <mxPoint x="20" y="580" />
            </Array>
          </mxGeometry>
        </mxCell>
        <mxCell id="hlG7USS01fNyysAAoeb_-30" value="click pulsante creazione contenuto" style="edgeLabel;html=1;align=center;verticalAlign=middle;resizable=0;points=[];fontFamily=Helvetica;fontSize=11;fontColor=default;labelBackgroundColor=default;" parent="hlG7USS01fNyysAAoeb_-29" vertex="1" connectable="0">
          <mxGeometry x="0.7143" y="-1" relative="1" as="geometry">
            <mxPoint x="80" y="1" as="offset" />
          </mxGeometry>
        </mxCell>
        <mxCell id="hlG7USS01fNyysAAoeb_-31" value="Menù contenuti" style="rounded=1;whiteSpace=wrap;html=1;arcSize=40;fontColor=#000000;fillColor=#ffffc0;strokeColor=#ff0000;" parent="1" vertex="1">
          <mxGeometry x="-40" y="480" width="120" height="40" as="geometry" />
        </mxCell>
        <mxCell id="hlG7USS01fNyysAAoeb_-46" style="edgeStyle=orthogonalEdgeStyle;shape=connector;rounded=0;orthogonalLoop=1;jettySize=auto;html=1;strokeColor=#ff0000;align=center;verticalAlign=bottom;fontFamily=Helvetica;fontSize=11;fontColor=default;labelBackgroundColor=default;endArrow=open;endSize=8;" parent="1" source="hlG7USS01fNyysAAoeb_-50" target="hlG7USS01fNyysAAoeb_-55" edge="1">
          <mxGeometry relative="1" as="geometry">
            <mxPoint x="-260" y="400" as="targetPoint" />
          </mxGeometry>
        </mxCell>
        <mxCell id="hlG7USS01fNyysAAoeb_-47" value="click pulsante salva" style="edgeLabel;html=1;align=center;verticalAlign=middle;resizable=0;points=[];fontFamily=Helvetica;fontSize=11;fontColor=default;labelBackgroundColor=default;" parent="hlG7USS01fNyysAAoeb_-46" vertex="1" connectable="0">
          <mxGeometry x="0.0889" y="-2" relative="1" as="geometry">
            <mxPoint as="offset" />
          </mxGeometry>
        </mxCell>
        <mxCell id="hlG7USS01fNyysAAoeb_-48" style="edgeStyle=orthogonalEdgeStyle;shape=connector;rounded=0;orthogonalLoop=1;jettySize=auto;html=1;strokeColor=#ff0000;align=center;verticalAlign=bottom;fontFamily=Helvetica;fontSize=11;fontColor=default;labelBackgroundColor=default;endArrow=open;endSize=8;" parent="1" source="hlG7USS01fNyysAAoeb_-50" target="hlG7USS01fNyysAAoeb_-57" edge="1">
          <mxGeometry relative="1" as="geometry">
            <Array as="points">
              <mxPoint x="-220" y="460" />
              <mxPoint x="-20" y="460" />
            </Array>
          </mxGeometry>
        </mxCell>
        <mxCell id="hlG7USS01fNyysAAoeb_-49" value="click pulsante elimina" style="edgeLabel;html=1;align=center;verticalAlign=middle;resizable=0;points=[];fontFamily=Helvetica;fontSize=11;fontColor=default;labelBackgroundColor=default;" parent="hlG7USS01fNyysAAoeb_-48" vertex="1" connectable="0">
          <mxGeometry x="-0.3227" y="-2" relative="1" as="geometry">
            <mxPoint x="5" y="-2" as="offset" />
          </mxGeometry>
        </mxCell>
        <mxCell id="hlG7USS01fNyysAAoeb_-50" value="Modale informazioni contenuto" style="rounded=1;whiteSpace=wrap;html=1;arcSize=40;fontColor=#000000;fillColor=#ffffc0;strokeColor=#ff0000;" parent="1" vertex="1">
          <mxGeometry x="-320" y="480" width="120" height="40" as="geometry" />
        </mxCell>
        <mxCell id="hlG7USS01fNyysAAoeb_-51" style="edgeStyle=orthogonalEdgeStyle;shape=connector;rounded=0;orthogonalLoop=1;jettySize=auto;html=1;strokeColor=#ff0000;align=center;verticalAlign=bottom;fontFamily=Helvetica;fontSize=11;fontColor=default;labelBackgroundColor=default;endArrow=open;endSize=8;" parent="1" source="hlG7USS01fNyysAAoeb_-55" target="hlG7USS01fNyysAAoeb_-57" edge="1">
          <mxGeometry relative="1" as="geometry">
            <mxPoint x="-110" y="390" as="targetPoint" />
          </mxGeometry>
        </mxCell>
        <mxCell id="hlG7USS01fNyysAAoeb_-52" value="sì" style="edgeLabel;html=1;align=center;verticalAlign=middle;resizable=0;points=[];fontFamily=Helvetica;fontSize=11;fontColor=default;labelBackgroundColor=default;" parent="hlG7USS01fNyysAAoeb_-51" vertex="1" connectable="0">
          <mxGeometry x="-0.8728" y="-2" relative="1" as="geometry">
            <mxPoint x="-11" y="-12" as="offset" />
          </mxGeometry>
        </mxCell>
        <mxCell id="hlG7USS01fNyysAAoeb_-53" style="edgeStyle=orthogonalEdgeStyle;shape=connector;rounded=0;orthogonalLoop=1;jettySize=auto;html=1;strokeColor=#ff0000;align=center;verticalAlign=bottom;fontFamily=Helvetica;fontSize=11;fontColor=default;labelBackgroundColor=default;endArrow=open;endSize=8;" parent="1" source="hlG7USS01fNyysAAoeb_-55" target="hlG7USS01fNyysAAoeb_-59" edge="1">
          <mxGeometry relative="1" as="geometry" />
        </mxCell>
        <mxCell id="hlG7USS01fNyysAAoeb_-54" value="no" style="edgeLabel;html=1;align=center;verticalAlign=middle;resizable=0;points=[];fontFamily=Helvetica;fontSize=11;fontColor=default;labelBackgroundColor=default;" parent="hlG7USS01fNyysAAoeb_-53" vertex="1" connectable="0">
          <mxGeometry x="-0.3049" y="2" relative="1" as="geometry">
            <mxPoint x="21" y="-12" as="offset" />
          </mxGeometry>
        </mxCell>
        <mxCell id="hlG7USS01fNyysAAoeb_-55" value="dati corretti?" style="rhombus;whiteSpace=wrap;html=1;fontColor=#000000;fillColor=#ffffc0;strokeColor=#ff0000;fontFamily=Helvetica;fontSize=11;labelBackgroundColor=none;" parent="1" vertex="1">
          <mxGeometry x="-300" y="360" width="80" height="40" as="geometry" />
        </mxCell>
        <mxCell id="hlG7USS01fNyysAAoeb_-56" style="edgeStyle=orthogonalEdgeStyle;shape=connector;rounded=0;orthogonalLoop=1;jettySize=auto;html=1;strokeColor=#ff0000;align=center;verticalAlign=bottom;fontFamily=Helvetica;fontSize=11;fontColor=default;labelBackgroundColor=default;endArrow=open;endSize=8;" parent="1" source="hlG7USS01fNyysAAoeb_-57" target="hlG7USS01fNyysAAoeb_-31" edge="1">
          <mxGeometry relative="1" as="geometry" />
        </mxCell>
        <mxCell id="hlG7USS01fNyysAAoeb_-57" value="Modifca dati contenuto su database" style="rounded=1;whiteSpace=wrap;html=1;arcSize=40;fontColor=#000000;fillColor=#ffffc0;strokeColor=#ff0000;" parent="1" vertex="1">
          <mxGeometry x="-40" y="360" width="120" height="40" as="geometry" />
        </mxCell>
        <mxCell id="hlG7USS01fNyysAAoeb_-58" style="edgeStyle=orthogonalEdgeStyle;shape=connector;rounded=0;orthogonalLoop=1;jettySize=auto;html=1;strokeColor=#ff0000;align=center;verticalAlign=bottom;fontFamily=Helvetica;fontSize=11;fontColor=default;labelBackgroundColor=default;endArrow=open;endSize=8;" parent="1" source="hlG7USS01fNyysAAoeb_-59" target="hlG7USS01fNyysAAoeb_-50" edge="1">
          <mxGeometry relative="1" as="geometry">
            <Array as="points">
              <mxPoint x="-420" y="500" />
            </Array>
          </mxGeometry>
        </mxCell>
        <mxCell id="hlG7USS01fNyysAAoeb_-59" value="Messaggio di errore" style="rounded=1;whiteSpace=wrap;html=1;arcSize=40;fontColor=#000000;fillColor=#ffffc0;strokeColor=#ff0000;" parent="1" vertex="1">
          <mxGeometry x="-480" y="360" width="120" height="40" as="geometry" />
        </mxCell>
        <mxCell id="hlG7USS01fNyysAAoeb_-60" style="edgeStyle=orthogonalEdgeStyle;shape=connector;rounded=0;orthogonalLoop=1;jettySize=auto;html=1;strokeColor=#ff0000;align=center;verticalAlign=bottom;fontFamily=Helvetica;fontSize=11;fontColor=default;labelBackgroundColor=default;endArrow=open;endSize=8;" parent="1" source="hlG7USS01fNyysAAoeb_-62" target="hlG7USS01fNyysAAoeb_-67" edge="1">
          <mxGeometry relative="1" as="geometry" />
        </mxCell>
        <mxCell id="hlG7USS01fNyysAAoeb_-61" value="click pulsante salva" style="edgeLabel;html=1;align=center;verticalAlign=middle;resizable=0;points=[];fontFamily=Helvetica;fontSize=11;fontColor=default;labelBackgroundColor=default;" parent="hlG7USS01fNyysAAoeb_-60" vertex="1" connectable="0">
          <mxGeometry x="-0.1605" y="-2" relative="1" as="geometry">
            <mxPoint x="-10" y="2" as="offset" />
          </mxGeometry>
        </mxCell>
        <mxCell id="hlG7USS01fNyysAAoeb_-62" value="Modale creazione contenuto" style="rounded=1;whiteSpace=wrap;html=1;arcSize=40;fontColor=#000000;fillColor=#ffffc0;strokeColor=#ff0000;" parent="1" vertex="1">
          <mxGeometry x="-320" y="560" width="120" height="40" as="geometry" />
        </mxCell>
        <mxCell id="hlG7USS01fNyysAAoeb_-63" style="edgeStyle=orthogonalEdgeStyle;shape=connector;rounded=0;orthogonalLoop=1;jettySize=auto;html=1;strokeColor=#ff0000;align=center;verticalAlign=bottom;fontFamily=Helvetica;fontSize=11;fontColor=default;labelBackgroundColor=default;endArrow=open;endSize=8;" parent="1" source="hlG7USS01fNyysAAoeb_-67" target="hlG7USS01fNyysAAoeb_-57" edge="1">
          <mxGeometry relative="1" as="geometry">
            <Array as="points">
              <mxPoint x="-520" y="320" />
              <mxPoint x="20" y="320" />
            </Array>
          </mxGeometry>
        </mxCell>
        <mxCell id="hlG7USS01fNyysAAoeb_-64" value="sì" style="edgeLabel;html=1;align=center;verticalAlign=middle;resizable=0;points=[];fontFamily=Helvetica;fontSize=11;fontColor=default;labelBackgroundColor=default;" parent="hlG7USS01fNyysAAoeb_-63" vertex="1" connectable="0">
          <mxGeometry x="-0.9422" y="1" relative="1" as="geometry">
            <mxPoint x="11" y="14" as="offset" />
          </mxGeometry>
        </mxCell>
        <mxCell id="hlG7USS01fNyysAAoeb_-65" style="edgeStyle=orthogonalEdgeStyle;shape=connector;rounded=0;orthogonalLoop=1;jettySize=auto;html=1;strokeColor=#ff0000;align=center;verticalAlign=bottom;fontFamily=Helvetica;fontSize=11;fontColor=default;labelBackgroundColor=default;endArrow=open;endSize=8;" parent="1" source="hlG7USS01fNyysAAoeb_-67" target="hlG7USS01fNyysAAoeb_-69" edge="1">
          <mxGeometry relative="1" as="geometry" />
        </mxCell>
        <mxCell id="hlG7USS01fNyysAAoeb_-66" value="no" style="edgeLabel;html=1;align=center;verticalAlign=middle;resizable=0;points=[];fontFamily=Helvetica;fontSize=11;fontColor=default;labelBackgroundColor=default;" parent="hlG7USS01fNyysAAoeb_-65" vertex="1" connectable="0">
          <mxGeometry x="-0.7037" y="3" relative="1" as="geometry">
            <mxPoint x="7" y="4" as="offset" />
          </mxGeometry>
        </mxCell>
        <mxCell id="hlG7USS01fNyysAAoeb_-67" value="dati corretti?" style="rhombus;whiteSpace=wrap;html=1;fontColor=#000000;fillColor=#ffffc0;strokeColor=#ff0000;fontFamily=Helvetica;fontSize=11;labelBackgroundColor=none;" parent="1" vertex="1">
          <mxGeometry x="-560" y="560" width="80" height="40" as="geometry" />
        </mxCell>
        <mxCell id="hlG7USS01fNyysAAoeb_-68" style="edgeStyle=orthogonalEdgeStyle;shape=connector;rounded=0;orthogonalLoop=1;jettySize=auto;html=1;strokeColor=#ff0000;align=center;verticalAlign=bottom;fontFamily=Helvetica;fontSize=11;fontColor=default;labelBackgroundColor=default;endArrow=open;endSize=8;" parent="1" source="hlG7USS01fNyysAAoeb_-69" target="hlG7USS01fNyysAAoeb_-62" edge="1">
          <mxGeometry relative="1" as="geometry" />
        </mxCell>
        <mxCell id="hlG7USS01fNyysAAoeb_-69" value="Messaggio di errore" style="rounded=1;whiteSpace=wrap;html=1;arcSize=40;fontColor=#000000;fillColor=#ffffc0;strokeColor=#ff0000;" parent="1" vertex="1">
          <mxGeometry x="-580" y="640" width="120" height="40" as="geometry" />
        </mxCell>
        <mxCell id="hlG7USS01fNyysAAoeb_-70" style="edgeStyle=orthogonalEdgeStyle;shape=connector;rounded=0;orthogonalLoop=1;jettySize=auto;html=1;strokeColor=#ff0000;align=center;verticalAlign=bottom;fontFamily=Helvetica;fontSize=11;fontColor=default;labelBackgroundColor=default;endArrow=open;endSize=8;" parent="1" source="hlG7USS01fNyysAAoeb_-4" target="hlG7USS01fNyysAAoeb_-82" edge="1">
          <mxGeometry relative="1" as="geometry">
            <Array as="points">
              <mxPoint x="990" y="180" />
              <mxPoint x="990" y="380" />
            </Array>
          </mxGeometry>
        </mxCell>
        <mxCell id="hlG7USS01fNyysAAoeb_-71" value="click scheda utenti" style="edgeLabel;html=1;align=center;verticalAlign=middle;resizable=0;points=[];fontFamily=Helvetica;fontSize=11;fontColor=default;labelBackgroundColor=default;" parent="hlG7USS01fNyysAAoeb_-70" vertex="1" connectable="0">
          <mxGeometry x="0.1649" relative="1" as="geometry">
            <mxPoint x="-422" as="offset" />
          </mxGeometry>
        </mxCell>
        <mxCell id="hlG7USS01fNyysAAoeb_-75" style="edgeStyle=orthogonalEdgeStyle;shape=connector;rounded=0;orthogonalLoop=1;jettySize=auto;html=1;strokeColor=#ff0000;align=center;verticalAlign=bottom;fontFamily=Helvetica;fontSize=11;fontColor=default;labelBackgroundColor=default;endArrow=open;endSize=8;" parent="1" source="hlG7USS01fNyysAAoeb_-31" target="hlG7USS01fNyysAAoeb_-101" edge="1">
          <mxGeometry relative="1" as="geometry">
            <mxPoint x="-140" y="1119.92" as="sourcePoint" />
            <Array as="points">
              <mxPoint x="60" y="1080" />
              <mxPoint x="-140" y="1080" />
            </Array>
          </mxGeometry>
        </mxCell>
        <mxCell id="hlG7USS01fNyysAAoeb_-76" value="click pulsante&lt;div&gt;inf-ormazioni attività&lt;/div&gt;" style="edgeLabel;html=1;align=center;verticalAlign=middle;resizable=0;points=[];fontFamily=Helvetica;fontSize=11;fontColor=default;labelBackgroundColor=default;" parent="hlG7USS01fNyysAAoeb_-75" vertex="1" connectable="0">
          <mxGeometry x="0.1094" relative="1" as="geometry">
            <mxPoint y="-284" as="offset" />
          </mxGeometry>
        </mxCell>
        <mxCell id="hlG7USS01fNyysAAoeb_-77" style="edgeStyle=orthogonalEdgeStyle;shape=connector;rounded=0;orthogonalLoop=1;jettySize=auto;html=1;strokeColor=#ff0000;align=center;verticalAlign=bottom;fontFamily=Helvetica;fontSize=11;fontColor=default;labelBackgroundColor=default;endArrow=open;endSize=8;" parent="1" source="hlG7USS01fNyysAAoeb_-31" target="hlG7USS01fNyysAAoeb_-105" edge="1">
          <mxGeometry relative="1" as="geometry">
            <Array as="points">
              <mxPoint x="120" y="510" />
              <mxPoint x="120" y="1140" />
              <mxPoint x="-260" y="1140" />
              <mxPoint x="-260" y="1020" />
            </Array>
            <mxPoint x="-200" y="1139.9473684210527" as="sourcePoint" />
          </mxGeometry>
        </mxCell>
        <mxCell id="hlG7USS01fNyysAAoeb_-78" value="click pulsante aggiunta attività" style="edgeLabel;html=1;align=center;verticalAlign=middle;resizable=0;points=[];fontFamily=Helvetica;fontSize=11;fontColor=default;labelBackgroundColor=default;" parent="hlG7USS01fNyysAAoeb_-77" vertex="1" connectable="0">
          <mxGeometry y="2" relative="1" as="geometry">
            <mxPoint x="-112" y="75" as="offset" />
          </mxGeometry>
        </mxCell>
        <mxCell id="hlG7USS01fNyysAAoeb_-80" style="edgeStyle=orthogonalEdgeStyle;shape=connector;rounded=0;orthogonalLoop=1;jettySize=auto;html=1;strokeColor=#ff0000;align=center;verticalAlign=bottom;fontFamily=Helvetica;fontSize=11;fontColor=default;labelBackgroundColor=default;endArrow=open;endSize=8;" parent="1" source="hlG7USS01fNyysAAoeb_-82" target="hlG7USS01fNyysAAoeb_-87" edge="1">
          <mxGeometry relative="1" as="geometry" />
        </mxCell>
        <mxCell id="hlG7USS01fNyysAAoeb_-81" value="click pulsante&lt;div&gt;informazioni utente&lt;/div&gt;" style="edgeLabel;html=1;align=center;verticalAlign=middle;resizable=0;points=[];fontFamily=Helvetica;fontSize=11;fontColor=default;labelBackgroundColor=default;" parent="hlG7USS01fNyysAAoeb_-80" vertex="1" connectable="0">
          <mxGeometry x="0.0639" relative="1" as="geometry">
            <mxPoint x="5" as="offset" />
          </mxGeometry>
        </mxCell>
        <mxCell id="hlG7USS01fNyysAAoeb_-82" value="Menù utenti" style="rounded=1;whiteSpace=wrap;html=1;arcSize=40;fontColor=#000000;fillColor=#ffffc0;strokeColor=#ff0000;" parent="1" vertex="1">
          <mxGeometry x="840" y="360" width="120" height="40" as="geometry" />
        </mxCell>
        <mxCell id="hlG7USS01fNyysAAoeb_-83" style="edgeStyle=orthogonalEdgeStyle;shape=connector;rounded=0;orthogonalLoop=1;jettySize=auto;html=1;strokeColor=#ff0000;align=center;verticalAlign=bottom;fontFamily=Helvetica;fontSize=11;fontColor=default;labelBackgroundColor=default;endArrow=open;endSize=8;" parent="1" source="hlG7USS01fNyysAAoeb_-87" target="hlG7USS01fNyysAAoeb_-92" edge="1">
          <mxGeometry relative="1" as="geometry" />
        </mxCell>
        <mxCell id="hlG7USS01fNyysAAoeb_-84" value="click pulsante salva" style="edgeLabel;html=1;align=center;verticalAlign=middle;resizable=0;points=[];fontFamily=Helvetica;fontSize=11;fontColor=default;labelBackgroundColor=default;" parent="hlG7USS01fNyysAAoeb_-83" vertex="1" connectable="0">
          <mxGeometry x="-0.13" y="-1" relative="1" as="geometry">
            <mxPoint as="offset" />
          </mxGeometry>
        </mxCell>
        <mxCell id="hlG7USS01fNyysAAoeb_-85" style="edgeStyle=orthogonalEdgeStyle;shape=connector;rounded=0;orthogonalLoop=1;jettySize=auto;html=1;strokeColor=#ff0000;align=center;verticalAlign=bottom;fontFamily=Helvetica;fontSize=11;fontColor=default;labelBackgroundColor=default;endArrow=open;endSize=8;" parent="1" source="hlG7USS01fNyysAAoeb_-87" target="hlG7USS01fNyysAAoeb_-96" edge="1">
          <mxGeometry relative="1" as="geometry">
            <Array as="points">
              <mxPoint x="620" y="340" />
              <mxPoint x="860" y="340" />
            </Array>
          </mxGeometry>
        </mxCell>
        <mxCell id="hlG7USS01fNyysAAoeb_-86" value="click pulsante elimina account" style="edgeLabel;html=1;align=center;verticalAlign=middle;resizable=0;points=[];fontFamily=Helvetica;fontSize=11;fontColor=default;labelBackgroundColor=default;" parent="hlG7USS01fNyysAAoeb_-85" vertex="1" connectable="0">
          <mxGeometry x="-0.3172" y="3" relative="1" as="geometry">
            <mxPoint x="31" y="3" as="offset" />
          </mxGeometry>
        </mxCell>
        <mxCell id="hlG7USS01fNyysAAoeb_-87" value="Modale informazioni utente" style="rounded=1;whiteSpace=wrap;html=1;arcSize=40;fontColor=#000000;fillColor=#ffffc0;strokeColor=#ff0000;" parent="1" vertex="1">
          <mxGeometry x="560" y="360" width="120" height="40" as="geometry" />
        </mxCell>
        <mxCell id="hlG7USS01fNyysAAoeb_-88" style="edgeStyle=orthogonalEdgeStyle;shape=connector;rounded=0;orthogonalLoop=1;jettySize=auto;html=1;strokeColor=#ff0000;align=center;verticalAlign=bottom;fontFamily=Helvetica;fontSize=11;fontColor=default;labelBackgroundColor=default;endArrow=open;endSize=8;" parent="1" source="hlG7USS01fNyysAAoeb_-92" target="hlG7USS01fNyysAAoeb_-94" edge="1">
          <mxGeometry relative="1" as="geometry" />
        </mxCell>
        <mxCell id="hlG7USS01fNyysAAoeb_-89" value="no" style="edgeLabel;html=1;align=center;verticalAlign=middle;resizable=0;points=[];fontFamily=Helvetica;fontSize=11;fontColor=default;labelBackgroundColor=default;" parent="hlG7USS01fNyysAAoeb_-88" vertex="1" connectable="0">
          <mxGeometry x="-0.799" y="1" relative="1" as="geometry">
            <mxPoint x="12" y="9" as="offset" />
          </mxGeometry>
        </mxCell>
        <mxCell id="hlG7USS01fNyysAAoeb_-90" style="edgeStyle=orthogonalEdgeStyle;shape=connector;rounded=0;orthogonalLoop=1;jettySize=auto;html=1;strokeColor=#ff0000;align=center;verticalAlign=bottom;fontFamily=Helvetica;fontSize=11;fontColor=default;labelBackgroundColor=default;endArrow=open;endSize=8;" parent="1" source="hlG7USS01fNyysAAoeb_-92" target="hlG7USS01fNyysAAoeb_-96" edge="1">
          <mxGeometry relative="1" as="geometry" />
        </mxCell>
        <mxCell id="hlG7USS01fNyysAAoeb_-91" value="sì" style="edgeLabel;html=1;align=center;verticalAlign=middle;resizable=0;points=[];fontFamily=Helvetica;fontSize=11;fontColor=default;labelBackgroundColor=default;" parent="hlG7USS01fNyysAAoeb_-90" vertex="1" connectable="0">
          <mxGeometry x="-0.5079" y="-2" relative="1" as="geometry">
            <mxPoint x="-35" y="8" as="offset" />
          </mxGeometry>
        </mxCell>
        <mxCell id="hlG7USS01fNyysAAoeb_-92" value="dati corretti?" style="rhombus;whiteSpace=wrap;html=1;fontColor=#000000;fillColor=#ffffc0;strokeColor=#ff0000;fontFamily=Helvetica;fontSize=11;labelBackgroundColor=none;" parent="1" vertex="1">
          <mxGeometry x="580" y="240" width="80" height="40" as="geometry" />
        </mxCell>
        <mxCell id="hlG7USS01fNyysAAoeb_-93" style="edgeStyle=orthogonalEdgeStyle;shape=connector;rounded=0;orthogonalLoop=1;jettySize=auto;html=1;strokeColor=#ff0000;align=center;verticalAlign=bottom;fontFamily=Helvetica;fontSize=11;fontColor=default;labelBackgroundColor=default;endArrow=open;endSize=8;" parent="1" source="hlG7USS01fNyysAAoeb_-94" target="hlG7USS01fNyysAAoeb_-87" edge="1">
          <mxGeometry relative="1" as="geometry" />
        </mxCell>
        <mxCell id="hlG7USS01fNyysAAoeb_-94" value="Messaggio di errore" style="rounded=1;whiteSpace=wrap;html=1;arcSize=40;fontColor=#000000;fillColor=#ffffc0;strokeColor=#ff0000;" parent="1" vertex="1">
          <mxGeometry x="400" y="360" width="120" height="40" as="geometry" />
        </mxCell>
        <mxCell id="hlG7USS01fNyysAAoeb_-95" style="edgeStyle=orthogonalEdgeStyle;shape=connector;rounded=0;orthogonalLoop=1;jettySize=auto;html=1;strokeColor=#ff0000;align=center;verticalAlign=bottom;fontFamily=Helvetica;fontSize=11;fontColor=default;labelBackgroundColor=default;endArrow=open;endSize=8;" parent="1" source="hlG7USS01fNyysAAoeb_-96" target="hlG7USS01fNyysAAoeb_-82" edge="1">
          <mxGeometry relative="1" as="geometry" />
        </mxCell>
        <mxCell id="hlG7USS01fNyysAAoeb_-96" value="Modifica dati utente su database" style="rounded=1;whiteSpace=wrap;html=1;arcSize=40;fontColor=#000000;fillColor=#ffffc0;strokeColor=#ff0000;" parent="1" vertex="1">
          <mxGeometry x="840" y="240" width="120" height="40" as="geometry" />
        </mxCell>
        <mxCell id="hlG7USS01fNyysAAoeb_-97" style="edgeStyle=orthogonalEdgeStyle;shape=connector;rounded=0;orthogonalLoop=1;jettySize=auto;html=1;strokeColor=#ff0000;align=center;verticalAlign=bottom;fontFamily=Helvetica;fontSize=11;fontColor=default;labelBackgroundColor=default;endArrow=open;endSize=8;" parent="1" source="hlG7USS01fNyysAAoeb_-101" target="hlG7USS01fNyysAAoeb_-110" edge="1">
          <mxGeometry relative="1" as="geometry" />
        </mxCell>
        <mxCell id="hlG7USS01fNyysAAoeb_-98" value="click pulsante salva" style="edgeLabel;html=1;align=center;verticalAlign=middle;resizable=0;points=[];fontFamily=Helvetica;fontSize=11;fontColor=default;labelBackgroundColor=default;" parent="hlG7USS01fNyysAAoeb_-97" vertex="1" connectable="0">
          <mxGeometry x="-0.3375" y="-1" relative="1" as="geometry">
            <mxPoint x="-1" as="offset" />
          </mxGeometry>
        </mxCell>
        <mxCell id="hlG7USS01fNyysAAoeb_-99" style="edgeStyle=orthogonalEdgeStyle;shape=connector;rounded=0;orthogonalLoop=1;jettySize=auto;html=1;strokeColor=#ff0000;align=center;verticalAlign=bottom;fontFamily=Helvetica;fontSize=11;fontColor=default;labelBackgroundColor=default;endArrow=open;endSize=8;" parent="1" source="hlG7USS01fNyysAAoeb_-101" target="hlG7USS01fNyysAAoeb_-114" edge="1">
          <mxGeometry relative="1" as="geometry">
            <Array as="points">
              <mxPoint x="-220" y="1019.92" />
              <mxPoint x="-220" y="859.92" />
            </Array>
          </mxGeometry>
        </mxCell>
        <mxCell id="hlG7USS01fNyysAAoeb_-100" value="click pulsante&lt;div&gt;elimina&lt;/div&gt;" style="edgeLabel;html=1;align=center;verticalAlign=middle;resizable=0;points=[];fontFamily=Helvetica;fontSize=11;fontColor=default;labelBackgroundColor=default;" parent="hlG7USS01fNyysAAoeb_-99" vertex="1" connectable="0">
          <mxGeometry x="0.0275" relative="1" as="geometry">
            <mxPoint as="offset" />
          </mxGeometry>
        </mxCell>
        <mxCell id="hlG7USS01fNyysAAoeb_-101" value="Modale informazioni attività" style="rounded=1;whiteSpace=wrap;html=1;arcSize=40;fontColor=#000000;fillColor=#ffffc0;strokeColor=#ff0000;" parent="1" vertex="1">
          <mxGeometry x="-200" y="999.92" width="120" height="40" as="geometry" />
        </mxCell>
        <mxCell id="hlG7USS01fNyysAAoeb_-103" style="edgeStyle=orthogonalEdgeStyle;shape=connector;rounded=0;orthogonalLoop=1;jettySize=auto;html=1;strokeColor=#ff0000;align=center;verticalAlign=bottom;fontFamily=Helvetica;fontSize=11;fontColor=default;labelBackgroundColor=default;endArrow=open;endSize=8;" parent="1" source="hlG7USS01fNyysAAoeb_-105" target="hlG7USS01fNyysAAoeb_-119" edge="1">
          <mxGeometry relative="1" as="geometry" />
        </mxCell>
        <mxCell id="hlG7USS01fNyysAAoeb_-104" value="click pulsante salva" style="edgeLabel;html=1;align=center;verticalAlign=middle;resizable=0;points=[];fontFamily=Helvetica;fontSize=11;fontColor=default;labelBackgroundColor=default;" parent="hlG7USS01fNyysAAoeb_-103" vertex="1" connectable="0">
          <mxGeometry x="-0.2" relative="1" as="geometry">
            <mxPoint as="offset" />
          </mxGeometry>
        </mxCell>
        <mxCell id="hlG7USS01fNyysAAoeb_-105" value="Modale aggiunta attività" style="rounded=1;whiteSpace=wrap;html=1;arcSize=40;fontColor=#000000;fillColor=#ffffc0;strokeColor=#ff0000;" parent="1" vertex="1">
          <mxGeometry x="-400" y="999.92" width="120" height="40" as="geometry" />
        </mxCell>
        <mxCell id="hlG7USS01fNyysAAoeb_-106" style="edgeStyle=orthogonalEdgeStyle;shape=connector;rounded=0;orthogonalLoop=1;jettySize=auto;html=1;strokeColor=#ff0000;align=center;verticalAlign=bottom;fontFamily=Helvetica;fontSize=11;fontColor=default;labelBackgroundColor=default;endArrow=open;endSize=8;" parent="1" source="hlG7USS01fNyysAAoeb_-110" target="hlG7USS01fNyysAAoeb_-112" edge="1">
          <mxGeometry relative="1" as="geometry" />
        </mxCell>
        <mxCell id="hlG7USS01fNyysAAoeb_-107" value="no" style="edgeLabel;html=1;align=center;verticalAlign=middle;resizable=0;points=[];fontFamily=Helvetica;fontSize=11;fontColor=default;labelBackgroundColor=default;" parent="hlG7USS01fNyysAAoeb_-106" vertex="1" connectable="0">
          <mxGeometry x="-0.5708" y="-4" relative="1" as="geometry">
            <mxPoint x="-3" y="-14" as="offset" />
          </mxGeometry>
        </mxCell>
        <mxCell id="hlG7USS01fNyysAAoeb_-108" style="edgeStyle=orthogonalEdgeStyle;shape=connector;rounded=0;orthogonalLoop=1;jettySize=auto;html=1;strokeColor=#ff0000;align=center;verticalAlign=bottom;fontFamily=Helvetica;fontSize=11;fontColor=default;labelBackgroundColor=default;endArrow=open;endSize=8;" parent="1" source="hlG7USS01fNyysAAoeb_-110" target="hlG7USS01fNyysAAoeb_-114" edge="1">
          <mxGeometry relative="1" as="geometry" />
        </mxCell>
        <mxCell id="hlG7USS01fNyysAAoeb_-109" value="sì" style="edgeLabel;html=1;align=center;verticalAlign=middle;resizable=0;points=[];fontFamily=Helvetica;fontSize=11;fontColor=default;labelBackgroundColor=default;" parent="hlG7USS01fNyysAAoeb_-108" vertex="1" connectable="0">
          <mxGeometry x="-0.3875" y="-1" relative="1" as="geometry">
            <mxPoint x="9" y="3" as="offset" />
          </mxGeometry>
        </mxCell>
        <mxCell id="hlG7USS01fNyysAAoeb_-110" value="dati corretti?" style="rhombus;whiteSpace=wrap;html=1;fontColor=#000000;fillColor=#ffffc0;strokeColor=#ff0000;fontFamily=Helvetica;fontSize=11;labelBackgroundColor=none;" parent="1" vertex="1">
          <mxGeometry x="-180" y="919.92" width="80" height="40" as="geometry" />
        </mxCell>
        <mxCell id="hlG7USS01fNyysAAoeb_-111" style="edgeStyle=orthogonalEdgeStyle;shape=connector;rounded=0;orthogonalLoop=1;jettySize=auto;html=1;strokeColor=#ff0000;align=center;verticalAlign=bottom;fontFamily=Helvetica;fontSize=11;fontColor=default;labelBackgroundColor=default;endArrow=open;endSize=8;" parent="1" source="hlG7USS01fNyysAAoeb_-112" target="hlG7USS01fNyysAAoeb_-101" edge="1">
          <mxGeometry relative="1" as="geometry">
            <Array as="points">
              <mxPoint x="20" y="1019.92" />
            </Array>
          </mxGeometry>
        </mxCell>
        <mxCell id="hlG7USS01fNyysAAoeb_-112" value="Messaggio di errore" style="rounded=1;whiteSpace=wrap;html=1;arcSize=40;fontColor=#000000;fillColor=#ffffc0;strokeColor=#ff0000;" parent="1" vertex="1">
          <mxGeometry x="-40" y="919.92" width="120" height="40" as="geometry" />
        </mxCell>
        <mxCell id="hlG7USS01fNyysAAoeb_-113" style="edgeStyle=orthogonalEdgeStyle;shape=connector;rounded=0;orthogonalLoop=1;jettySize=auto;html=1;strokeColor=#ff0000;align=center;verticalAlign=bottom;fontFamily=Helvetica;fontSize=11;fontColor=default;labelBackgroundColor=default;endArrow=open;endSize=8;" parent="1" source="hlG7USS01fNyysAAoeb_-114" target="hlG7USS01fNyysAAoeb_-31" edge="1">
          <mxGeometry relative="1" as="geometry">
            <Array as="points">
              <mxPoint x="-120" y="600" />
              <mxPoint x="40" y="600" />
            </Array>
          </mxGeometry>
        </mxCell>
        <mxCell id="hlG7USS01fNyysAAoeb_-114" value="Modifica dati attività su database" style="rounded=1;whiteSpace=wrap;html=1;arcSize=40;fontColor=#000000;fillColor=#ffffc0;strokeColor=#ff0000;" parent="1" vertex="1">
          <mxGeometry x="-200" y="839.92" width="120" height="40" as="geometry" />
        </mxCell>
        <mxCell id="hlG7USS01fNyysAAoeb_-115" style="edgeStyle=orthogonalEdgeStyle;shape=connector;rounded=0;orthogonalLoop=1;jettySize=auto;html=1;strokeColor=#ff0000;align=center;verticalAlign=bottom;fontFamily=Helvetica;fontSize=11;fontColor=default;labelBackgroundColor=default;endArrow=open;endSize=8;" parent="1" source="hlG7USS01fNyysAAoeb_-119" target="hlG7USS01fNyysAAoeb_-114" edge="1">
          <mxGeometry relative="1" as="geometry">
            <mxPoint x="-340" y="879.92" as="targetPoint" />
            <Array as="points">
              <mxPoint x="-340" y="799.92" />
              <mxPoint x="-140" y="799.92" />
            </Array>
          </mxGeometry>
        </mxCell>
        <mxCell id="hlG7USS01fNyysAAoeb_-116" value="sì" style="edgeLabel;html=1;align=center;verticalAlign=middle;resizable=0;points=[];fontFamily=Helvetica;fontSize=11;fontColor=default;labelBackgroundColor=default;" parent="hlG7USS01fNyysAAoeb_-115" vertex="1" connectable="0">
          <mxGeometry x="-0.8123" relative="1" as="geometry">
            <mxPoint x="10" y="24" as="offset" />
          </mxGeometry>
        </mxCell>
        <mxCell id="hlG7USS01fNyysAAoeb_-117" style="edgeStyle=orthogonalEdgeStyle;shape=connector;rounded=0;orthogonalLoop=1;jettySize=auto;html=1;strokeColor=#ff0000;align=center;verticalAlign=bottom;fontFamily=Helvetica;fontSize=11;fontColor=default;labelBackgroundColor=default;endArrow=open;endSize=8;" parent="1" source="hlG7USS01fNyysAAoeb_-119" target="hlG7USS01fNyysAAoeb_-121" edge="1">
          <mxGeometry relative="1" as="geometry" />
        </mxCell>
        <mxCell id="hlG7USS01fNyysAAoeb_-118" value="no" style="edgeLabel;html=1;align=center;verticalAlign=middle;resizable=0;points=[];fontFamily=Helvetica;fontSize=11;fontColor=default;labelBackgroundColor=default;" parent="hlG7USS01fNyysAAoeb_-117" vertex="1" connectable="0">
          <mxGeometry x="-0.1333" y="-2" relative="1" as="geometry">
            <mxPoint x="26" y="-8" as="offset" />
          </mxGeometry>
        </mxCell>
        <mxCell id="hlG7USS01fNyysAAoeb_-119" value="dati corretti?" style="rhombus;whiteSpace=wrap;html=1;fontColor=#000000;fillColor=#ffffc0;strokeColor=#ff0000;fontFamily=Helvetica;fontSize=11;labelBackgroundColor=none;" parent="1" vertex="1">
          <mxGeometry x="-380" y="919.92" width="80" height="40" as="geometry" />
        </mxCell>
        <mxCell id="hlG7USS01fNyysAAoeb_-120" style="edgeStyle=orthogonalEdgeStyle;shape=connector;rounded=0;orthogonalLoop=1;jettySize=auto;html=1;strokeColor=#ff0000;align=center;verticalAlign=bottom;fontFamily=Helvetica;fontSize=11;fontColor=default;labelBackgroundColor=default;endArrow=open;endSize=8;" parent="1" source="hlG7USS01fNyysAAoeb_-121" target="hlG7USS01fNyysAAoeb_-105" edge="1">
          <mxGeometry relative="1" as="geometry">
            <Array as="points">
              <mxPoint x="-500" y="1019.92" />
            </Array>
          </mxGeometry>
        </mxCell>
        <mxCell id="hlG7USS01fNyysAAoeb_-121" value="Messaggio di errore" style="rounded=1;whiteSpace=wrap;html=1;arcSize=40;fontColor=#000000;fillColor=#ffffc0;strokeColor=#ff0000;" parent="1" vertex="1">
          <mxGeometry x="-560" y="919.92" width="120" height="40" as="geometry" />
        </mxCell>
      </root>
    </mxGraphModel>
  </diagram>
</mxfile>
